REM DIRINDEX 1\2,1\3,1\4,1\5,1\6
REM DIRNAME cjc129,folder01,folder02,folder03,folder04,folder05
TITLE ""
FILE "DISC3Track02.mp3" MP3
  TRACK 01 AUDIO
    TITLE "0:"
    INDEX 01 00:00:00
  TRACK 02 AUDIO
    TITLE "3:cjc129_2074"
    INDEX 01 00:00:05
  TRACK 03 AUDIO
    TITLE "0:"
    INDEX 01 00:01:24
  TRACK 04 AUDIO
    TITLE "5:cjc129_2075"
    INDEX 01 00:01:56
  TRACK 05 AUDIO
    TITLE "0:"
    INDEX 01 00:05:30
  TRACK 06 AUDIO
    TITLE "4:cjc129_2076"
    INDEX 01 00:06:20
  TRACK 07 AUDIO
    TITLE "0:"
    INDEX 01 00:07:41
  TRACK 08 AUDIO
    TITLE "6:cjc129_2077"
    INDEX 01 00:07:70
  TRACK 09 AUDIO
    TITLE "0:"
    INDEX 01 00:11:62
  TRACK 10 AUDIO
    TITLE "2:cjc129_2078"
    INDEX 01 00:13:33
  TRACK 11 AUDIO
    TITLE "0:"
    INDEX 01 00:17:49
  TRACK 12 AUDIO
    TITLE "3:cjc129_2079"
    INDEX 01 00:18:62
  TRACK 13 AUDIO
    TITLE "0:"
    INDEX 01 00:20:08
  TRACK 14 AUDIO
    TITLE "5:cjc129_2080"
    INDEX 01 00:20:39
  TRACK 15 AUDIO
    TITLE "0:"
    INDEX 01 00:27:16
  TRACK 16 AUDIO
    TITLE "4:cjc129_2081"
    INDEX 01 00:28:08
  TRACK 17 AUDIO
    TITLE "0:"
    INDEX 01 00:29:27
  TRACK 18 AUDIO
    TITLE "6:cjc129_2082"
    INDEX 01 00:29:60
  TRACK 19 AUDIO
    TITLE "0:"
    INDEX 01 00:32:70
  TRACK 20 AUDIO
    TITLE "3:cjc129_2083"
    INDEX 01 00:34:45
  TRACK 21 AUDIO
    TITLE "0:"
    INDEX 01 00:35:72
  TRACK 22 AUDIO
    TITLE "5:cjc129_2084"
    INDEX 01 00:37:42
  TRACK 23 AUDIO
    TITLE "0:"
    INDEX 01 00:39:51
  TRACK 24 AUDIO
    TITLE "4:cjc129_2085"
    INDEX 01 00:40:42
  TRACK 25 AUDIO
    TITLE "0:"
    INDEX 01 00:41:69
  TRACK 26 AUDIO
    TITLE "6:cjc129_2086"
    INDEX 01 00:42:25
  TRACK 27 AUDIO
    TITLE "0:"
    INDEX 01 00:46:27
  TRACK 28 AUDIO
    TITLE "3:cjc129_2087"
    INDEX 01 00:48:00
  TRACK 29 AUDIO
    TITLE "0:"
    INDEX 01 00:49:29
  TRACK 30 AUDIO
    TITLE "5:cjc129_2088"
    INDEX 01 00:50:58
  TRACK 31 AUDIO
    TITLE "0:"
    INDEX 01 00:52:61
  TRACK 32 AUDIO
    TITLE "4:cjc129_2089"
    INDEX 01 00:53:51
  TRACK 33 AUDIO
    TITLE "0:"
    INDEX 01 00:55:04
  TRACK 34 AUDIO
    TITLE "6:cjc129_2090"
    INDEX 01 00:55:32
  TRACK 35 AUDIO
    TITLE "0:"
    INDEX 01 01:00:47
  TRACK 36 AUDIO
    TITLE "3:cjc129_2091"
    INDEX 01 01:02:22
  TRACK 37 AUDIO
    TITLE "0:"
    INDEX 01 01:03:51
  TRACK 38 AUDIO
    TITLE "5:cjc129_2092"
    INDEX 01 01:04:05
  TRACK 39 AUDIO
    TITLE "0:"
    INDEX 01 01:08:03
  TRACK 40 AUDIO
    TITLE "4:cjc129_2093"
    INDEX 01 01:08:68
  TRACK 41 AUDIO
    TITLE "0:"
    INDEX 01 01:10:22
  TRACK 42 AUDIO
    TITLE "6:cjc129_2094"
    INDEX 01 01:10:53
  TRACK 43 AUDIO
    TITLE "0:"
    INDEX 01 01:15:21
  TRACK 44 AUDIO
    TITLE "3:cjc129_2095"
    INDEX 01 01:16:71
  TRACK 45 AUDIO
    TITLE "0:"
    INDEX 01 01:18:31
  TRACK 46 AUDIO
    TITLE "5:cjc129_2096"
    INDEX 01 01:18:60
  TRACK 47 AUDIO
    TITLE "0:"
    INDEX 01 01:23:16
  TRACK 48 AUDIO
    TITLE "4:cjc129_2097"
    INDEX 01 01:24:06
  TRACK 49 AUDIO
    TITLE "0:"
    INDEX 01 01:25:43
  TRACK 50 AUDIO
    TITLE "6:cjc129_2098"
    INDEX 01 01:25:72
  TRACK 51 AUDIO
    TITLE "0:"
    INDEX 01 01:31:59
  TRACK 52 AUDIO
    TITLE "2:cjc129_2099"
    INDEX 01 01:33:34
  TRACK 53 AUDIO
    TITLE "0:"
    INDEX 01 01:37:38
  TRACK 54 AUDIO
    TITLE "3:cjc129_2100"
    INDEX 01 01:38:49
  TRACK 55 AUDIO
    TITLE "0:"
    INDEX 01 01:41:38
  TRACK 56 AUDIO
    TITLE "5:cjc129_2101"
    INDEX 01 01:41:67
  TRACK 57 AUDIO
    TITLE "0:"
    INDEX 01 01:43:39
  TRACK 58 AUDIO
    TITLE "4:cjc129_2102"
    INDEX 01 01:44:30
  TRACK 59 AUDIO
    TITLE "0:"
    INDEX 01 01:47:19
  TRACK 60 AUDIO
    TITLE "6:cjc129_2103"
    INDEX 01 01:47:48
  TRACK 61 AUDIO
    TITLE "0:"
    INDEX 01 01:52:53
